<?xml version="1.0" encoding="utf-8"?>
<!-- Generator: Adobe Illustrator 14.0.0, SVG Export Plug-In . SVG Version: 6.00 Build 43363)  -->
<!DOCTYPE svg PUBLIC "-//W3C//DTD SVG 1.1//EN" "http://www.w3.org/Graphics/SVG/1.1/DTD/svg11.dtd">
<svg version="1.1" id="Layer_1" xmlns="http://www.w3.org/2000/svg" xmlns:xlink="http://www.w3.org/1999/xlink" x="0px" y="0px"
	 width="800px" height="600px" viewBox="0 0 800 600" enable-background="new 0 0 800 600" xml:space="preserve">
<rect x="80.375" y="100" fill="#999999" width="39.626" height="40"/>
<rect x="109.875" y="60" fill="#999999" width="40.126" height="40"/>
<rect x="50" y="60" fill="#999999" width="39.874" height="40"/>
<rect x="150" y="40" fill="#999999" width="40" height="40"/>
<rect x="10" y="40" fill="#999999" width="40" height="40"/>
<rect x="110" fill="#999999" width="40.001" height="40"/>
<rect x="50" fill="#999999" width="40" height="40"/>
<rect fill="#999999" width="40" height="40"/>
<rect x="160.5" fill="#999999" width="39.501" height="40"/>
<rect x="10" fill="#FFFFFF" width="30" height="30"/>
<rect x="160" fill="#FFFFFF" width="30" height="30"/>
<rect x="120" fill="#FFFFFF" width="30" height="30"/>
<rect x="50" fill="#FFFFFF" width="30" height="30"/>
<rect x="20" y="40" fill="#FFFFFF" width="30" height="30"/>
<rect x="60" y="60" fill="#FFFFFF" width="30" height="30"/>
<rect x="110" y="60" fill="#FFFFFF" width="30" height="30"/>
<rect x="150" y="40" fill="#FFFFFF" width="30" height="30"/>
<rect x="90" y="100" fill="#FFFFFF" width="30" height="30"/>
<rect x="20" width="20" height="20"/>
<rect x="30" y="40" width="20" height="20"/>
<rect x="70" y="60" width="20" height="20"/>
<rect x="110" y="60" width="20" height="20"/>
<rect x="150" y="40" width="20" height="20"/>
<rect x="90" y="100" width="20" height="20"/>
<rect x="50" width="20" height="20"/>
<rect x="130" width="20" height="20"/>
<rect x="160" width="20" height="20"/>
</svg>
