<?xml version="1.0" encoding="utf-8"?>
<!-- Generator: Adobe Illustrator 14.0.0, SVG Export Plug-In . SVG Version: 6.00 Build 43363)  -->
<!DOCTYPE svg PUBLIC "-//W3C//DTD SVG 1.1//EN" "http://www.w3.org/Graphics/SVG/1.1/DTD/svg11.dtd">
<svg version="1.1" id="Layer_1" xmlns="http://www.w3.org/2000/svg" xmlns:xlink="http://www.w3.org/1999/xlink" x="0px" y="0px"
	 width="800px" height="600px" viewBox="0 0 800 600" enable-background="new 0 0 800 600" xml:space="preserve">
<polygon points="0,100 100.001,149.333 200.001,99.333 200.333,-0.667 100.001,99.333 0,-0.667 "/>
<path fill="#999999" d="M100,30C44.772,30,0,61.34,0,100l100,50l100-50C200,61.34,155.229,30,100,30z"/>
<polygon fill="#999999" points="10,10 10,80 70,80 "/>
<path d="M0,99.667l100,50v-120C44.771,29.667,0,61.006,0,99.667z"/>
<path fill="#FFFFFF" d="M100.544,30C100.543,30,100.543,30,100.544,30l-0.001,100l0.001,0L190,85.271C173.583,52.5,139.693,30,100.544,30z"/>
</svg>
