<?xml version="1.0" encoding="utf-8"?>
<!-- Generator: Adobe Illustrator 14.0.0, SVG Export Plug-In . SVG Version: 6.00 Build 43363)  -->
<!DOCTYPE svg PUBLIC "-//W3C//DTD SVG 1.1//EN" "http://www.w3.org/Graphics/SVG/1.1/DTD/svg11.dtd">
<svg version="1.1" id="Layer_1" xmlns="http://www.w3.org/2000/svg" xmlns:xlink="http://www.w3.org/1999/xlink" x="0px" y="0px"
	 width="800px" height="600px" viewBox="0 0 800 600" enable-background="new 0 0 800 600" xml:space="preserve">
<polygon fill="#999999" points="0,0 30,0 30,40 60,40 60,10 90,10 90,70 70,70 70,100 100.397,100 100.397,150 70,150 70,120 40,120 40,90 10,90 10,60 0,60 "/>
<rect x="7" y="3" fill="#FFFFFF" width="20" height="54"/>
<rect x="67" y="13" fill="#FFFFFF" width="20" height="50"/>
<rect x="43" y="45" fill="#FFFFFF" width="20" height="50"/>
<rect x="13" y="61" width="20" height="26"/>
<rect x="43" y="97" width="20" height="20"/>
<rect x="73" y="105" width="20" height="20"/>
<polygon fill="#999999" points="200.166,0 170.166,0 170.166,40 140.166,40 140.166,10 110.166,10 110.166,70 130.166,70 130.166,100 100.166,100 100.166,150 130.166,150 130.166,120 160.166,120 160.166,90 190.166,90 190.167,60 200.166,60 "/>
<rect x="173.166" y="3" fill="#FFFFFF" width="20" height="54"/>
<rect x="113.166" y="13" fill="#FFFFFF" width="20" height="50"/>
<rect x="137.166" y="45" fill="#FFFFFF" width="20" height="50"/>
<rect x="167.166" y="61" width="20" height="26"/>
<rect x="137.166" y="97" width="20" height="20"/>
<rect x="107.166" y="105" width="20" height="20"/>
<rect x="80" y="127.367" fill="#FFFFFF" width="40" height="20"/>
</svg>
