<?xml version="1.0" encoding="utf-8"?>
<!-- Generator: Adobe Illustrator 14.0.0, SVG Export Plug-In . SVG Version: 6.00 Build 43363)  -->
<!DOCTYPE svg PUBLIC "-//W3C//DTD SVG 1.1//EN" "http://www.w3.org/Graphics/SVG/1.1/DTD/svg11.dtd">
<svg version="1.1" id="Layer_1" xmlns="http://www.w3.org/2000/svg" xmlns:xlink="http://www.w3.org/1999/xlink" x="0px" y="0px"
	 width="800px" height="600px" viewBox="0 0 800 600" enable-background="new 0 0 800 600" xml:space="preserve">
<path fill="#000000" d="M104.001,40c-15.645-30.086,29.296-45.382,62-36c21.647,6.21,34,28.846,34,45c0,40.56,0,25.062,0,25.062s0.999,8.03,0,18.803C199.739,95.681,196,103,189,98c-12.711-9.079-14.07-37.058-31-51C141,33,130.001,90,104.001,40z"/>
<path fill="#000000" d="M59,100c0,22.091,41,40,41,40s41-17.909,41-40s-18.356-40-41-40S59,77.909,59,100z"/>
<polygon points="106,53.78 198.455,9 111.083,20.103 "/>
<polygon points="108.669,83.292 184,45 117.848,49.485 "/>
<polygon points="120.621,105.014 183.379,78.986 131.929,77.403 "/>
<circle fill="#FFFFFF" cx="114.5" cy="24.5" r="11.5"/>
<circle fill="#FFFFFF" cx="115.5" cy="54.5" r="11.5"/>
<circle fill="#FFFFFF" cx="135.5" cy="78.5" r="11.5"/>
<path fill="#000000" d="M96.444,38.748c15.645-30.086-29.296-45.382-62-36c-21.647,6.21-34,28.846-34,45c0,40.56,0,25.062,0,25.062s-0.999,8.03,0,18.803c0.261,2.816,4,10.136,11,5.136c12.711-9.079,14.07-37.058,31-51C59.444,31.748,70.444,88.748,96.444,38.748z"/>
<polygon points="94.444,52.528 1.99,7.748 89.362,18.851 "/>
<polygon points="91.776,82.04 16.444,43.748 82.597,48.232 "/>
<polygon points="79.824,103.761 17.065,77.734 68.516,76.15 "/>
<circle fill="#FFFFFF" cx="85.944" cy="23.248" r="11.5"/>
<circle fill="#FFFFFF" cx="84.944" cy="53.248" r="11.5"/>
<circle fill="#FFFFFF" cx="64.944" cy="77.248" r="11.5"/>
<path fill="#FFFFFF" d="M69,106.756C69,123.459,100,137,100,137s31-13.541,31-30.244c0-16.704-13.879-30.244-31-30.244S69,90.053,69,106.756z"/>
</svg>
