<?xml version="1.0" encoding="utf-8"?>
<!-- Generator: Adobe Illustrator 14.0.0, SVG Export Plug-In . SVG Version: 6.00 Build 43363)  -->
<!DOCTYPE svg PUBLIC "-//W3C//DTD SVG 1.1//EN" "http://www.w3.org/Graphics/SVG/1.1/DTD/svg11.dtd">
<svg version="1.1" id="Layer_1" xmlns="http://www.w3.org/2000/svg" xmlns:xlink="http://www.w3.org/1999/xlink" x="0px" y="0px"width="800px" height="600px" viewBox="0 0 800 600" enable-background="new 0 0 800 600" xml:space="preserve">
<path fill="#999999" d="M90.001,21c0,0-20.147,21-45,21C20.148,42,0,21,0,21s20.147-21,45-21C69.854,0,90.001,21,90.001,21z"/>
<circle fill="#FFFFFF" cx="45" cy="21" r="21"/>
<path fill="#000000" d="M31.888,13.121c-1.299-5.651,2.229-11.287,7.88-12.586s11.286,2.228,12.587,7.879C53.653,14.065,44.475,21,44.475,21S33.188,18.772,31.888,13.121z"/>
<path fill="#000000" d="M34,31.5C34,25.701,44.5,21,44.5,21S55,25.701,55,31.5S50.299,42,44.5,42S34,37.299,34,31.5z"/>
<path fill="#999999" d="M100.75,21c0,0,20.147,21,45,21c24.853,0,45-21,45-21s-20.147-21-45-21C120.898,0,100.75,21,100.75,21z"/>
<circle fill="#FFFFFF" cx="145.751" cy="21" r="21"/>
<path fill="#000000" d="M158.864,13.121c1.299-5.651-2.229-11.287-7.88-12.586s-11.286,2.228-12.587,7.879c-1.299,5.651,7.88,12.586,7.88,12.586S157.563,18.772,158.864,13.121z"/>
<path fill="#000000" d="M156.751,31.5c0-5.799-10.5-10.5-10.5-10.5s-10.5,4.701-10.5,10.5s4.701,10.5,10.5,10.5S156.751,37.299,156.751,31.5z"/>
</svg>
