<?xml version="1.0" encoding="utf-8"?>
<!-- Generator: Adobe Illustrator 14.0.0, SVG Export Plug-In . SVG Version: 6.00 Build 43363)  -->
<!DOCTYPE svg PUBLIC "-//W3C//DTD SVG 1.1//EN" "http://www.w3.org/Graphics/SVG/1.1/DTD/svg11.dtd">
<svg version="1.1" id="Layer_1" xmlns="http://www.w3.org/2000/svg" xmlns:xlink="http://www.w3.org/1999/xlink" x="0px" y="0px"
	 width="800px" height="600px" viewBox="0 0 800 600" enable-background="new 0 0 800 600" xml:space="preserve">
<path d="M10,21.195c0,0,14.972,7.919,28.03,10.082c6.757,1.117,17.781-0.701,25.649,1.943c8.921,2.999,22.271,28.3,22.271,28.3s-47.921,10.081-57.264,0C19.343,51.438,10,21.195,10,21.195z"/>
<circle fill="#999999" cx="60" cy="50" r="15"/>
<circle fill="#FFFFFF" cx="60" cy="50" r="12.417"/>
<path d="M60.783,35c0,0,5.782,6.715,5.782,15s-5.782,15-5.782,15S55,58.285,55,50S60.783,35,60.783,35z"/>
<path fill="#FFFFFF" d="M60,50l7.449-3.654c-1.073-2.181-3.069-3.819-5.483-4.406L60,50z"/>
<path d="M171.313,61.52c-9.343,10.081-57.264,0-57.264,0s13.351-25.301,22.271-28.3c7.868-2.644,18.893-0.826,25.649-1.943C175.028,29.114,190,21.195,190,21.195S180.657,51.438,171.313,61.52z"/>
<circle fill="#999999" cx="140" cy="50" r="15"/>
<circle fill="#FFFFFF" cx="140" cy="50" r="12.417"/>
<path d="M145,50c0,8.285-5.783,15-5.783,15s-5.782-6.715-5.782-15s5.782-15,5.782-15S145,41.715,145,50z"/>
<path fill="#FFFFFF" d="M138.255,50l7.449-3.654c-1.073-2.181-3.069-3.819-5.483-4.406L138.255,50z"/>
</svg>
