<?xml version="1.0" encoding="utf-8"?>
<!-- Generator: Adobe Illustrator 14.0.0, SVG Export Plug-In . SVG Version: 6.00 Build 43363)  -->
<!DOCTYPE svg PUBLIC "-//W3C//DTD SVG 1.1//EN" "http://www.w3.org/Graphics/SVG/1.1/DTD/svg11.dtd">
<svg version="1.1" id="Layer_1" xmlns="http://www.w3.org/2000/svg" xmlns:xlink="http://www.w3.org/1999/xlink" x="0px" y="0px"
	 width="800px" height="600px" viewBox="0 0 800 600" enable-background="new 0 0 800 600" xml:space="preserve">
<path fill="#999999" d="M90.001,49c0,0-20.147,21-45,21C20.148,70,0,49,0,49s20.147-21,45-21C69.854,28,90.001,49,90.001,49z"/>
<circle fill="#FFFFFF" cx="45" cy="49" r="21"/>
<path fill="#000000" d="M31.888,41.121c-1.299-5.651,2.229-11.287,7.88-12.586s11.286,2.228,12.587,7.879C53.653,42.065,44.475,49,44.475,49S33.188,46.772,31.888,41.121z"/>
<path fill="#000000" d="M34,59.5C34,53.701,44.5,49,44.5,49S55,53.701,55,59.5S50.299,70,44.5,70S34,65.299,34,59.5z"/>
<path fill="#999999" d="M100.75,49c0,0,20.147,21,45,21c24.853,0,45-21,45-21s-20.147-21-45-21C120.898,28,100.75,49,100.75,49z"/>
<circle fill="#FFFFFF" cx="145.751" cy="49" r="21"/>
<path fill="#000000" d="M158.864,41.121c1.299-5.651-2.229-11.287-7.88-12.586s-11.286,2.228-12.587,7.879c-1.299,5.651,7.88,12.586,7.88,12.586S157.563,46.772,158.864,41.121z"/>
<path fill="#000000" d="M156.751,59.5c0-5.799-10.5-10.5-10.5-10.5s-10.5,4.701-10.5,10.5s4.701,10.5,10.5,10.5S156.751,65.299,156.751,59.5z"/>
</svg>
