<?xml version="1.0" encoding="utf-8"?>
<!-- Generator: Adobe Illustrator 14.0.0, SVG Export Plug-In . SVG Version: 6.00 Build 43363)  -->
<!DOCTYPE svg PUBLIC "-//W3C//DTD SVG 1.1//EN" "http://www.w3.org/Graphics/SVG/1.1/DTD/svg11.dtd">
<svg version="1.1" id="Layer_1" xmlns="http://www.w3.org/2000/svg" xmlns:xlink="http://www.w3.org/1999/xlink" x="0px" y="0px"
	 width="800px" height="600px" viewBox="0 0 800 600" enable-background="new 0 0 800 600" xml:space="preserve">
<path fill="#999999" d="M93.001,50c0,0-20.147,21-45,21S3,50,3,50s20.147-21,45-21C72.854,29,93.001,50,93.001,50z"/>
<circle fill="#FFFFFF" cx="48" cy="50" r="21"/>
<path d="M34.889,42.121c-1.299-5.651,2.229-11.287,7.88-12.586c5.651-1.299,11.286,2.228,12.587,7.879C56.653,43.065,47.476,50,47.476,50S36.188,47.772,34.889,42.121z"/>
<path d="M37,60.5C37,54.701,47.5,50,47.5,50S58,54.701,58,60.5S53.299,71,47.5,71S37,66.299,37,60.5z"/>
<path fill="#999999" d="M107,50c0,0,20.147,21,45,21s45-21,45-21s-20.147-21-45-21C127.148,29,107,50,107,50z"/>
<circle fill="#FFFFFF" cx="152.001" cy="50" r="21"/>
<path d="M165.114,42.121c1.299-5.651-2.229-11.287-7.88-12.586c-5.651-1.299-11.286,2.228-12.587,7.879c-1.299,5.651,7.88,12.586,7.88,12.586S163.813,47.772,165.114,42.121z"/>
<path d="M163.001,60.5c0-5.799-10.5-10.5-10.5-10.5s-10.5,4.701-10.5,10.5s4.701,10.5,10.5,10.5S163.001,66.299,163.001,60.5z"/>
</svg>
