<?xml version="1.0" encoding="utf-8"?>
<!-- Generator: Adobe Illustrator 14.0.0, SVG Export Plug-In . SVG Version: 6.00 Build 43363)  -->
<!DOCTYPE svg PUBLIC "-//W3C//DTD SVG 1.1//EN" "http://www.w3.org/Graphics/SVG/1.1/DTD/svg11.dtd">
<svg version="1.1" id="Layer_1" xmlns="http://www.w3.org/2000/svg" xmlns:xlink="http://www.w3.org/1999/xlink" x="0px" y="0px"
	 width="800px" height="600px" viewBox="0 0 800 600" enable-background="new 0 0 800 600" xml:space="preserve">
<path d="M35,25c0,0,8.011,3.928,15,5c3.615,0.554,9.515-0.347,13.725,0.964C68.499,32.451,75.643,45,75.643,45S50,50,45,45S35,25,35,25z"/>
<circle fill="#999999" cx="60" cy="50" r="15"/>
<circle fill="#FFFFFF" cx="60" cy="50" r="12.417"/>
<circle cx="60" cy="50" r="9.565"/>
<path fill="#FFFFFF" d="M60,50l7.449-3.654c-1.073-2.181-3.069-3.819-5.483-4.406L60,50z"/>
<path d="M165.319,25c0,0-8.011,3.928-15,5c-3.615,0.554-9.515-0.347-13.725,0.964C131.821,32.451,124.677,45,124.677,45s25.643,5,30.643,0S165.319,25,165.319,25z"/>
<circle fill="#999999" cx="140.319" cy="50" r="15"/>
<circle fill="#FFFFFF" cx="140.319" cy="50" r="12.417"/>
<circle cx="140.319" cy="50" r="9.565"/>
<path fill="#FFFFFF" d="M140,50l7.449-3.654c-1.073-2.181-3.069-3.819-5.483-4.406L140,50z"/>
</svg>
